<svg width="379" height="317" viewBox="0 0 379 317" fill="none" xmlns="http://www.w3.org/2000/svg">
<g clip-path="url(#clip0)">
<path opacity="0.41" d="M313.255 242.579C312.329 247.908 311.139 253.278 308.716 257.967C308.49 258.404 308.264 258.833 307.986 259.247V259.06L68.2841 258.331V259.481C67.5543 238.116 63.1755 216.986 63.1244 195.597C63.1083 183.241 64.556 170.936 67.4302 158.998C70.1378 147.757 74.1589 136.775 80.3841 127.412C97.3738 101.844 127.244 92.3196 151.437 75.3443C177.177 57.2918 186.132 16.7647 214.419 4.2681C229.329 -2.34063 246.771 -1.10959 261.148 6.81116C275.525 14.7319 286.815 29.0832 292.639 45.686C300.097 66.9781 298.762 90.5945 301.148 113.28C304.155 141.95 313.182 169.486 315.372 198.189C316.505 213.023 315.793 227.96 313.255 242.579V242.579Z" fill="#68E1FD"/>
<path opacity="0.66" d="M308.016 259.093V259.433C292.223 294.922 255.164 315.364 237.889 315.866L117.174 317C89.6674 317 68.226 291.505 68.226 260.98V259.481V258.331L308.016 259.093Z" fill="#68E1FD"/>
<path d="M99.797 271.994C98.3812 272.594 96.6589 274.011 97.3449 275.509C97.6495 276.036 98.0966 276.441 98.622 276.667C113.043 285.106 129.93 286.159 146.212 287.05L209.705 290.492C219.798 291.035 230.351 291.488 239.517 286.783C243.006 284.852 246.318 282.549 249.406 279.907C253.784 276.408 258.115 272.864 262.396 269.273C263.469 268.382 264.585 267.346 264.826 265.88C265.067 264.195 263.892 262.575 262.476 261.903C261.014 261.349 259.459 261.155 257.922 261.336C243.896 261.876 229.864 262.095 215.828 261.992C206.924 261.935 197.991 261.765 189.153 260.518C174.762 258.485 161.042 256.307 146.519 258.331C130.594 260.542 114.714 265.637 99.797 271.994Z" fill="url(#paint0_linear)"/>
<path d="M251.31 46.6984H166.844C159.371 46.6984 153.313 53.4211 153.313 61.7138V247.317C153.313 255.61 159.371 262.332 166.844 262.332H251.31C258.783 262.332 264.841 255.61 264.841 247.317V61.7138C264.841 53.4211 258.783 46.6984 251.31 46.6984Z" fill="#68E1FD"/>
<path d="M251.31 46.6984H166.844C159.371 46.6984 153.313 53.4211 153.313 61.7138V247.317C153.313 255.61 159.371 262.332 166.844 262.332H251.31C258.783 262.332 264.841 255.61 264.841 247.317V61.7138C264.841 53.4211 258.783 46.6984 251.31 46.6984Z" fill="url(#paint1_linear)"/>
<path d="M244.37 46.6984H159.903C152.431 46.6984 146.373 53.4211 146.373 61.7138V247.317C146.373 255.61 152.431 262.332 159.903 262.332H244.37C251.843 262.332 257.901 255.61 257.901 247.317V61.7138C257.901 53.4211 251.843 46.6984 244.37 46.6984Z" fill="#68E1FD"/>
<path d="M249.486 71.3839V230.05C249.486 233.213 248.354 236.246 246.34 238.483C244.325 240.72 241.593 241.978 238.743 241.98H166.055C164.644 241.98 163.246 241.671 161.943 241.071C160.639 240.472 159.454 239.593 158.456 238.485C157.459 237.377 156.668 236.062 156.128 234.615C155.589 233.167 155.312 231.616 155.313 230.05V71.3839C155.312 70.0938 155.54 68.8162 155.984 67.6238C156.428 66.4315 157.079 65.3479 157.9 64.435C158.722 63.522 159.697 62.7974 160.771 62.3028C161.844 61.8081 162.995 61.5529 164.158 61.5518H240.626C242.975 61.554 245.228 62.5906 246.889 64.434C248.55 66.2774 249.484 68.777 249.486 71.3839V71.3839Z" fill="white"/>
<path d="M249.486 177.35V230.05C249.486 233.213 248.354 236.246 246.34 238.483C244.325 240.72 241.593 241.978 238.743 241.98H175.127V177.35H249.486Z" fill="#68E1FD"/>
<path d="M249.479 177.35V230.05C249.477 233.211 248.345 236.241 246.333 238.478C244.321 240.714 241.591 241.973 238.743 241.98H175.127V177.35H249.479Z" fill="url(#paint2_linear)"/>
<path d="M249.478 207.745V230.05C249.483 233.111 248.421 236.057 246.515 238.27H177.44V207.745H249.478Z" fill="url(#paint3_linear)"/>
<path d="M154.211 61.6571L131.507 88.6023H232.314L252.544 61.2765L154.211 61.6571Z" fill="#68E1FD"/>
<path d="M166.661 61.5518L146.322 88.4403L232.496 88.5375H131.507L132.12 87.8977L140.242 79.4505L155.247 61.5437L166.661 61.5518Z" fill="url(#paint4_linear)"/>
<path d="M196.51 61.163L176.309 88.4402L262.484 88.5374H161.494L162.107 87.8975L181.323 61.5436L196.51 61.163Z" fill="url(#paint5_linear)"/>
<path d="M225.424 61.163L205.224 88.4402L190.409 88.5374L191.022 87.8975L210.237 61.5436L225.424 61.163Z" fill="url(#paint6_linear)"/>
<path d="M252.69 61.163L232.489 88.4402L217.674 88.5374L218.287 87.8975L237.502 61.5436L252.69 61.163Z" fill="url(#paint7_linear)"/>
<path d="M176.068 88.5941H190.525C190.283 90.5306 189.418 92.3044 188.089 93.5883C186.76 94.8721 185.058 95.5793 183.297 95.5793C181.535 95.5793 179.833 94.8721 178.504 93.5883C177.175 92.3044 176.31 90.5306 176.068 88.5941V88.5941Z" fill="#68E1FD"/>
<path d="M161.385 88.5941H175.842C175.6 90.5306 174.734 92.3044 173.406 93.5883C172.077 94.8721 170.375 95.5793 168.613 95.5793C166.851 95.5793 165.149 94.8721 163.821 93.5883C162.492 92.3044 161.627 90.5306 161.385 88.5941V88.5941Z" fill="#68E1FD"/>
<path d="M219.856 88.497C219.629 90.4412 218.775 92.2282 217.452 93.5265C216.128 94.8248 214.425 95.5463 212.659 95.5572C210.892 95.568 209.182 94.8676 207.846 93.5856C206.509 92.3037 205.637 90.5274 205.391 88.5861H219.768L219.856 88.497Z" fill="#68E1FD"/>
<path d="M232.423 88.497C232.073 92.5465 229.387 95.6808 226.132 95.6808C222.877 95.6808 220.228 92.5789 219.849 88.5861H232.372L232.423 88.497Z" fill="#68E1FD"/>
<path d="M146.789 88.5941H161.246C161.004 90.5306 160.138 92.3044 158.81 93.5883C157.481 94.8721 155.779 95.5793 154.017 95.5793C152.256 95.5793 150.553 94.8721 149.225 93.5883C147.896 92.3044 147.031 90.5306 146.789 88.5941V88.5941Z" fill="#68E1FD"/>
<path d="M190.73 88.5941H205.172C204.93 90.5306 204.065 92.3044 202.736 93.5883C201.408 94.8721 199.706 95.5793 197.944 95.5793C196.182 95.5793 194.48 94.8721 193.151 93.5883C191.823 92.3044 190.957 90.5306 190.715 88.5941H190.73Z" fill="#68E1FD"/>
<path d="M132.09 88.5941H146.548C146.305 90.5306 145.44 92.3044 144.112 93.5883C142.783 94.8721 141.081 95.5793 139.319 95.5793C137.557 95.5793 135.855 94.8721 134.527 93.5883C133.198 92.3044 132.333 90.5306 132.09 88.5941V88.5941Z" fill="#68E1FD"/>
<path d="M176.068 88.5941H190.525C190.283 90.5306 189.418 92.3044 188.089 93.5883C186.76 94.8721 185.058 95.5793 183.297 95.5793C181.535 95.5793 179.833 94.8721 178.504 93.5883C177.175 92.3044 176.31 90.5306 176.068 88.5941V88.5941Z" fill="url(#paint8_linear)"/>
<path d="M161.385 88.5941H175.842C175.6 90.5306 174.734 92.3044 173.406 93.5883C172.077 94.8721 170.375 95.5793 168.613 95.5793C166.851 95.5793 165.149 94.8721 163.821 93.5883C162.492 92.3044 161.627 90.5306 161.385 88.5941V88.5941Z" fill="url(#paint9_linear)"/>
<path d="M219.849 88.5941C219.622 90.5383 218.768 92.3252 217.444 93.6235C216.121 94.9218 214.418 95.6434 212.651 95.6542C210.885 95.6651 209.175 94.9646 207.839 93.6827C206.502 92.4008 205.63 90.6244 205.384 88.6832H219.768L219.849 88.5941Z" fill="url(#paint10_linear)"/>
<path d="M232.379 88.5456C232.036 92.595 229.358 95.7374 226.11 95.7374C222.863 95.7374 220.228 92.6274 219.849 88.6428H232.328L232.379 88.5456Z" fill="url(#paint11_linear)"/>
<path d="M146.789 88.5941H161.246C161.004 90.5306 160.138 92.3044 158.81 93.5883C157.481 94.8721 155.779 95.5793 154.017 95.5793C152.256 95.5793 150.553 94.8721 149.225 93.5883C147.896 92.3044 147.031 90.5306 146.789 88.5941V88.5941Z" fill="url(#paint12_linear)"/>
<path d="M190.73 88.5941H205.172C204.93 90.5306 204.065 92.3044 202.736 93.5883C201.408 94.8721 199.706 95.5793 197.944 95.5793C196.182 95.5793 194.48 94.8721 193.151 93.5883C191.823 92.3044 190.957 90.5306 190.715 88.5941H190.73Z" fill="url(#paint13_linear)"/>
<path d="M132.09 88.5941H146.548C146.305 90.5306 145.44 92.3044 144.112 93.5883C142.783 94.8721 141.081 95.5793 139.319 95.5793C137.557 95.5793 135.855 94.8721 134.527 93.5883C133.198 92.3044 132.333 90.5306 132.09 88.5941V88.5941Z" fill="url(#paint14_linear)"/>
<path d="M146.54 88.5941L166.522 61.7462L181.323 61.5437L161.202 88.5941H146.54Z" fill="url(#paint15_linear)"/>
<path d="M175.937 88.5942L195.918 61.7463L209.814 61.398L190.598 88.5942H175.937Z" fill="url(#paint16_linear)"/>
<path d="M205.333 88.5942L225.307 61.7463L239.21 61.398L219.987 88.5942H205.333Z" fill="url(#paint17_linear)"/>
<path d="M232.328 88.6426L251.712 84.3826L252.763 61.163L232.328 88.6426Z" fill="#68E1FD"/>
<path d="M232.489 88.416L251.872 84.156L252.93 60.9364L232.489 88.416Z" fill="url(#paint18_linear)"/>
<path d="M205.69 247.025H190.16C187.879 247.025 186.03 249.078 186.03 251.609C186.03 254.141 187.879 256.193 190.16 256.193H205.69C207.972 256.193 209.821 254.141 209.821 251.609C209.821 249.078 207.972 247.025 205.69 247.025Z" fill="url(#paint19_linear)"/>
<path d="M149.131 152.883C159.728 152.883 168.318 143.351 168.318 131.591C168.318 119.832 159.728 110.299 149.131 110.299C138.535 110.299 129.945 119.832 129.945 131.591C129.945 143.351 138.535 152.883 149.131 152.883Z" fill="#68E1FD"/>
<path d="M145.723 152.883C156.319 152.883 164.91 143.351 164.91 131.591C164.91 119.832 156.319 110.299 145.723 110.299C135.127 110.299 126.537 119.832 126.537 131.591C126.537 143.351 135.127 152.883 145.723 152.883Z" fill="url(#paint20_linear)"/>
<path d="M127.113 195.646C136.496 195.646 144.103 187.204 144.103 176.791C144.103 166.378 136.496 157.937 127.113 157.937C117.73 157.937 110.124 166.378 110.124 176.791C110.124 187.204 117.73 195.646 127.113 195.646Z" fill="#68E1FD"/>
<path d="M124.092 195.646C133.475 195.646 141.082 187.204 141.082 176.791C141.082 166.378 133.475 157.937 124.092 157.937C114.709 157.937 107.102 166.378 107.102 176.791C107.102 187.204 114.709 195.646 124.092 195.646Z" fill="url(#paint21_linear)"/>
<path d="M208.157 153.928C205.778 156.763 204.399 160.407 203.049 164.003L199.246 174.224C199.124 174.457 199.049 174.717 199.027 174.986C199.006 175.255 199.038 175.526 199.122 175.779C199.266 175.982 199.449 176.148 199.657 176.264C199.865 176.38 200.094 176.444 200.326 176.451C202.261 176.776 204.21 176.992 206.165 177.099C216.037 177.78 225.925 178.031 235.831 177.852C237.019 177.922 238.205 177.698 239.305 177.196C242.034 175.666 242.224 171.454 241.764 168.109C241.213 164.212 240.233 160.404 238.845 156.771C238.358 155.331 237.641 154.001 236.729 152.843C234.466 150.211 230.89 149.79 227.599 149.684C221.352 149.514 212.842 148.332 208.157 153.928Z" fill="#68E1FD"/>
<path d="M200.896 151.587C200.834 151.216 200.65 150.884 200.381 150.654C200.112 150.424 199.775 150.312 199.436 150.34C198.576 150.298 197.715 150.333 196.86 150.446C196.31 150.462 195.781 150.682 195.357 151.069C195.049 151.482 194.859 151.986 194.809 152.519C194.116 156.69 194.919 160.966 195.225 165.194C195.437 168.077 195.459 171.138 196.86 173.568C197.494 174.643 198.36 175.524 199.38 176.131C200.4 176.738 201.541 177.051 202.698 177.042C203.676 177.042 204.786 176.646 205.158 175.649C205.309 175.146 205.351 174.611 205.282 174.086C204.778 166.498 203.793 158.569 200.896 151.587Z" fill="#68E1FD"/>
<path d="M200.399 147.87C200.859 146.769 201.487 145.765 202.034 144.712C202.19 144.448 202.292 144.149 202.333 143.837C202.351 143.675 202.324 143.512 202.256 143.367C202.189 143.223 202.083 143.104 201.954 143.027C201.407 142.792 200.969 143.634 200.399 143.764C199.83 143.894 199.421 143.392 199.049 142.954C197.426 141.161 195.509 139.729 193.401 138.735C193.292 138.662 193.172 138.615 193.046 138.595C192.921 138.576 192.793 138.585 192.671 138.621C192.445 138.735 192.379 139.18 192.612 139.261C192.387 139.281 192.161 139.218 191.97 139.083C191.766 138.986 191.467 138.978 191.372 139.204C191.277 139.431 191.554 139.763 191.481 140.014C191.233 140.021 190.986 139.977 190.752 139.885C190.503 139.836 190.175 139.885 190.131 140.201C190.113 140.305 190.113 140.412 190.131 140.516C190.164 140.939 190.164 141.365 190.131 141.788C190.246 142.918 190.671 143.981 191.35 144.833C192.703 146.701 193.923 148.683 194.999 150.762C195.257 151.44 195.604 152.073 196.028 152.64C196.626 153.353 198.845 154.366 199.429 153.126C199.706 152.543 199.48 151.264 199.582 150.583C199.746 149.643 200.021 148.731 200.399 147.87V147.87Z" fill="url(#paint22_linear)"/>
<path d="M230.511 164.975C230.654 165.488 230.693 166.03 230.626 166.562C230.56 167.094 230.388 167.603 230.124 168.053C229.489 168.911 228.38 169.081 227.38 169.138C222.512 169.421 217.543 168.49 212.784 169.721C212.101 169.817 211.47 170.179 211.004 170.742C210.597 171.541 210.479 172.482 210.675 173.374L211.084 177.237L206.34 176.281C206.162 176.255 205.991 176.188 205.837 176.087C205.612 175.846 205.479 175.518 205.464 175.172C205.076 173.158 204.907 171.099 204.961 169.041C205.024 166.965 205.76 164.983 207.033 163.461C208.24 162.272 209.695 161.437 211.266 161.031C214.915 159.865 218.754 159.524 222.556 159.184C224.198 159.039 226.935 158.634 228.344 159.873C229.518 160.926 230.219 163.428 230.511 164.975Z" fill="url(#paint23_linear)"/>
<path d="M210.427 137.091C210.296 138.413 210.338 139.75 210.551 141.059C210.808 142.208 211.309 143.272 212.011 144.164C212.712 145.055 213.596 145.748 214.587 146.186C216.046 146.825 217.776 146.995 218.776 148.316C219.776 149.636 219.725 151.393 220.754 152.495C221.288 152.99 221.955 153.276 222.651 153.307C223.346 153.337 224.032 153.112 224.6 152.665C225.721 151.725 226.471 150.341 226.694 148.802C226.902 147.277 226.983 145.734 226.935 144.193C226.957 142.137 227.11 140.086 227.395 138.054C227.643 136.641 227.796 135.209 227.855 133.77C227.842 132.106 227.553 130.458 227.001 128.911C225.767 125.307 223.228 122.059 219.863 121.103C218.325 120.682 216.706 120.815 215.241 121.485C213.776 122.156 212.542 123.327 211.719 124.829C210.872 126.343 210.952 127.882 210.85 129.688C210.714 132.145 210.573 134.612 210.427 137.091Z" fill="url(#paint24_linear)"/>
<path d="M209.471 116.365C208.865 116.09 208.048 115.839 207.661 116.422C207.528 116.666 207.465 116.948 207.479 117.232C207.467 118.258 207.777 119.257 208.354 120.059C207.75 120.011 207.15 120.209 206.669 120.617C205.99 121.362 206.326 122.674 206.924 123.492C207.522 124.31 208.347 124.975 208.705 125.922C208.894 126.432 208.938 126.999 209.121 127.542C209.191 127.808 209.327 128.047 209.515 128.23C209.702 128.414 209.932 128.535 210.179 128.579C210.836 128.579 211.252 127.85 211.638 127.242C212.67 125.684 214.2 124.624 215.915 124.279C217.629 123.934 219.397 124.331 220.856 125.388C223.673 127.607 224.454 131.794 225.016 135.576C225.3 135.803 225.468 135.195 225.578 134.831C225.826 134.021 226.964 134.094 227.373 134.782C227.543 135.15 227.618 135.562 227.589 135.974C227.561 136.385 227.431 136.78 227.212 137.115C226.818 137.811 226.242 138.362 225.811 139.034C225.685 139.192 225.62 139.399 225.629 139.609C225.667 139.785 225.757 139.942 225.884 140.055C226.233 140.442 226.604 140.804 226.993 141.14C227.136 141.299 227.307 141.421 227.496 141.499C227.685 141.578 227.887 141.61 228.088 141.594C228.362 141.506 228.603 141.321 228.774 141.067C230.234 139.253 230.803 136.734 231.117 134.313C231.431 131.891 231.409 129.162 229.716 127.704C229.38 127.42 228.986 127.21 228.679 126.894C228.132 126.293 227.683 125.591 227.351 124.821C225.529 121.42 222.723 118.805 219.389 117.402C217.888 116.621 216.209 116.361 214.572 116.657C212.892 117.213 211.091 117.11 209.471 116.365V116.365Z" fill="#B7A451"/>
<path d="M200.721 175.698C200.465 176.054 200.232 176.597 200.516 176.921C200.616 176.999 200.728 177.055 200.847 177.084C200.966 177.113 201.09 177.116 201.21 177.091L209.923 176.516C210.065 176.518 210.206 176.49 210.339 176.435C210.777 176.216 210.806 175.56 210.777 175.026L210.624 172.531C210.573 171.632 210.741 171.357 209.952 171.236C208.767 171.177 207.582 171.361 206.457 171.778C204.229 172.404 202.227 173.772 200.721 175.698V175.698Z" fill="url(#paint25_linear)"/>
<path d="M249.479 180.25H177.411V203.963H249.479V180.25Z" fill="url(#paint26_linear)"/>
<path d="M156.546 143.861H138.133L141.257 125.379H153.875L156.546 143.861Z" fill="white"/>
<path d="M151.722 127.015H143.826V126.206C143.826 125.044 144.242 123.929 144.982 123.107C145.723 122.286 146.727 121.824 147.774 121.824C148.821 121.824 149.825 122.286 150.566 123.107C151.306 123.929 151.722 125.044 151.722 126.206V127.015ZM145.329 125.436H150.19C150.036 124.853 149.716 124.341 149.277 123.977C148.839 123.613 148.307 123.416 147.759 123.416C147.212 123.416 146.679 123.613 146.241 123.977C145.803 124.341 145.483 124.853 145.329 125.436Z" fill="white"/>
<path d="M196.284 187.004H182.469V203.655H196.284V187.004Z" fill="#68E1FD"/>
<path d="M196.284 187.004H182.469V203.655H196.284V187.004Z" fill="url(#paint27_linear)"/>
<path d="M214.127 194.22H200.312V203.656H214.127V194.22Z" fill="url(#paint28_linear)"/>
<path d="M194.32 187.004H180.505V203.655H194.32V187.004Z" fill="#68E1FD"/>
<path d="M211.332 195.168H200.597V203.842H211.332V195.168Z" fill="#68E1FD"/>
<path d="M195.977 220.671H182.162V237.323H195.977V220.671Z" fill="#68E1FD"/>
<path d="M211.025 228.835H200.29V237.509H211.025V228.835Z" fill="#68E1FD"/>
<path d="M224.213 203.842C226.897 203.842 229.073 201.427 229.073 198.448C229.073 195.469 226.897 193.054 224.213 193.054C221.528 193.054 219.352 195.469 219.352 198.448C219.352 201.427 221.528 203.842 224.213 203.842Z" fill="url(#paint29_linear)"/>
<path d="M222.425 203.842C225.109 203.842 227.285 201.427 227.285 198.448C227.285 195.469 225.109 193.054 222.425 193.054C219.741 193.054 217.564 195.469 217.564 198.448C217.564 201.427 219.741 203.842 222.425 203.842Z" fill="#68E1FD"/>
<path d="M219.783 237.655C222.467 237.655 224.644 235.24 224.644 232.261C224.644 229.282 222.467 226.867 219.783 226.867C217.099 226.867 214.923 229.282 214.923 232.261C214.923 235.24 217.099 237.655 219.783 237.655Z" fill="url(#paint30_linear)"/>
<path d="M217.988 237.655C220.672 237.655 222.848 235.24 222.848 232.261C222.848 229.282 220.672 226.867 217.988 226.867C215.303 226.867 213.127 229.282 213.127 232.261C213.127 235.24 215.303 237.655 217.988 237.655Z" fill="#68E1FD"/>
<path d="M239.59 203.842C243.169 203.842 246.07 200.622 246.07 196.65C246.07 192.678 243.169 189.458 239.59 189.458C236.011 189.458 233.109 192.678 233.109 196.65C233.109 200.622 236.011 203.842 239.59 203.842Z" fill="url(#paint31_linear)"/>
<path d="M237.203 203.842C240.782 203.842 243.684 200.622 243.684 196.65C243.684 192.678 240.782 189.458 237.203 189.458C233.624 189.458 230.723 192.678 230.723 196.65C230.723 200.622 233.624 203.842 237.203 203.842Z" fill="#68E1FD"/>
<path d="M233.452 237.404C237.031 237.404 239.933 234.184 239.933 230.212C239.933 226.24 237.031 223.02 233.452 223.02C229.873 223.02 226.971 226.24 226.971 230.212C226.971 234.184 229.873 237.404 233.452 237.404Z" fill="url(#paint32_linear)"/>
<path d="M231.066 237.404C234.645 237.404 237.546 234.184 237.546 230.212C237.546 226.24 234.645 223.02 231.066 223.02C227.487 223.02 224.585 226.24 224.585 230.212C224.585 234.184 227.487 237.404 231.066 237.404Z" fill="#68E1FD"/>
<path d="M125.019 173.285C125.019 177.285 123.128 179.262 120.917 179.262C118.706 179.262 116.954 177.366 116.925 173.592C116.896 169.818 118.793 167.672 121.048 167.672C123.435 167.632 125.019 169.672 125.019 173.285ZM118.764 173.463C118.713 175.892 119.531 177.723 120.954 177.723C122.377 177.723 123.143 175.909 123.143 173.406C123.143 171.098 122.537 169.178 120.954 169.178C119.531 169.178 118.764 171.106 118.764 173.463ZM120.764 187.231L130.799 167.64H132.258L122.231 187.223L120.764 187.231ZM136.133 181.141C136.133 185.133 134.236 187.118 132.061 187.118C129.886 187.118 128.091 185.222 128.069 181.448C128.047 177.674 129.93 175.504 132.192 175.504C134.579 175.479 136.133 177.512 136.133 181.132V181.141ZM129.879 181.311C129.879 183.74 130.696 185.571 132.112 185.571C133.637 185.571 134.302 183.765 134.302 181.254C134.302 178.954 133.696 177.026 132.112 177.026C130.667 177.018 129.879 178.913 129.879 181.303V181.311Z" fill="white"/>
</g>
<defs>
<linearGradient id="paint0_linear" x1="184.257" y1="215.731" x2="177.334" y2="309.875" gradientUnits="userSpaceOnUse">
<stop offset="0.01"/>
<stop offset="0.13" stop-opacity="0.69"/>
<stop offset="1" stop-opacity="0"/>
</linearGradient>
<linearGradient id="paint1_linear" x1="18426" y1="41504.5" x2="43681.7" y2="40974.9" gradientUnits="userSpaceOnUse">
<stop offset="0.01"/>
<stop offset="0.13" stop-opacity="0.69"/>
<stop offset="1" stop-opacity="0"/>
</linearGradient>
<linearGradient id="paint2_linear" x1="18288.7" y1="22380.8" x2="17945.4" y2="11579" gradientUnits="userSpaceOnUse">
<stop offset="0.01"/>
<stop offset="0.13" stop-opacity="0.69"/>
<stop offset="1" stop-opacity="0"/>
</linearGradient>
<linearGradient id="paint3_linear" x1="17322.6" y1="7752.26" x2="17508.7" y2="11288.4" gradientUnits="userSpaceOnUse">
<stop offset="0.01"/>
<stop offset="0.13" stop-opacity="0.69"/>
<stop offset="1" stop-opacity="0"/>
</linearGradient>
<linearGradient id="paint4_linear" x1="16915" y1="1884.97" x2="16873.4" y2="3870.81" gradientUnits="userSpaceOnUse">
<stop offset="0.01"/>
<stop offset="0.13" stop-opacity="0.69"/>
<stop offset="1" stop-opacity="0"/>
</linearGradient>
<linearGradient id="paint5_linear" x1="21099.6" y1="1894.15" x2="21056.3" y2="3933.05" gradientUnits="userSpaceOnUse">
<stop offset="0.01"/>
<stop offset="0.13" stop-opacity="0.69"/>
<stop offset="1" stop-opacity="0"/>
</linearGradient>
<linearGradient id="paint6_linear" x1="7218.41" y1="1795.06" x2="7093.99" y2="3827.22" gradientUnits="userSpaceOnUse">
<stop offset="0.01"/>
<stop offset="0.13" stop-opacity="0.69"/>
<stop offset="1" stop-opacity="0"/>
</linearGradient>
<linearGradient id="paint7_linear" x1="8553.87" y1="1795.06" x2="8429.24" y2="3827.23" gradientUnits="userSpaceOnUse">
<stop offset="0.01"/>
<stop offset="0.13" stop-opacity="0.69"/>
<stop offset="1" stop-opacity="0"/>
</linearGradient>
<linearGradient id="paint8_linear" x1="181.052" y1="65.6742" x2="187.569" y2="119.694" gradientUnits="userSpaceOnUse">
<stop offset="0.02" stop-color="white" stop-opacity="0"/>
<stop offset="0.32" stop-color="white" stop-opacity="0.39"/>
<stop offset="0.68" stop-color="white" stop-opacity="0.68"/>
<stop offset="1" stop-color="white"/>
</linearGradient>
<linearGradient id="paint9_linear" x1="2736.23" y1="717.123" x2="2760.98" y2="1188.51" gradientUnits="userSpaceOnUse">
<stop offset="0.01"/>
<stop offset="0.13" stop-opacity="0.69"/>
<stop offset="1" stop-opacity="0"/>
</linearGradient>
<linearGradient id="paint10_linear" x1="3643.02" y1="678.902" x2="3668.3" y2="1155.4" gradientUnits="userSpaceOnUse">
<stop offset="0.02" stop-color="white" stop-opacity="0"/>
<stop offset="0.32" stop-color="white" stop-opacity="0.39"/>
<stop offset="0.68" stop-color="white" stop-opacity="0.68"/>
<stop offset="1" stop-color="white"/>
</linearGradient>
<linearGradient id="paint11_linear" x1="3430.57" y1="694.099" x2="3460.32" y2="1171.2" gradientUnits="userSpaceOnUse">
<stop offset="0.01"/>
<stop offset="0.13" stop-opacity="0.69"/>
<stop offset="1" stop-opacity="0"/>
</linearGradient>
<linearGradient id="paint12_linear" x1="2434.51" y1="732.141" x2="2459.27" y2="1203.6" gradientUnits="userSpaceOnUse">
<stop offset="0.02" stop-color="white" stop-opacity="0"/>
<stop offset="0.32" stop-color="white" stop-opacity="0.39"/>
<stop offset="0.68" stop-color="white" stop-opacity="0.68"/>
<stop offset="1" stop-color="white"/>
</linearGradient>
<linearGradient id="paint13_linear" x1="3339.65" y1="686.947" x2="3364.41" y2="1158.34" gradientUnits="userSpaceOnUse">
<stop offset="0.01"/>
<stop offset="0.13" stop-opacity="0.69"/>
<stop offset="1" stop-opacity="0"/>
</linearGradient>
<linearGradient id="paint14_linear" x1="2132.83" y1="747.229" x2="2157.59" y2="1218.69" gradientUnits="userSpaceOnUse">
<stop offset="0.01"/>
<stop offset="0.13" stop-opacity="0.69"/>
<stop offset="1" stop-opacity="0"/>
</linearGradient>
<linearGradient id="paint15_linear" x1="4123.19" y1="2568.85" x2="5780.91" y2="2568.85" gradientUnits="userSpaceOnUse">
<stop offset="0.02" stop-color="white" stop-opacity="0"/>
<stop offset="0.32" stop-color="white" stop-opacity="0.39"/>
<stop offset="0.68" stop-color="white" stop-opacity="0.68"/>
<stop offset="1" stop-color="white"/>
</linearGradient>
<linearGradient id="paint16_linear" x1="5413.69" y1="2579.76" x2="6986.26" y2="2579.76" gradientUnits="userSpaceOnUse">
<stop offset="0.02" stop-color="white" stop-opacity="0"/>
<stop offset="0.32" stop-color="white" stop-opacity="0.39"/>
<stop offset="0.68" stop-color="white" stop-opacity="0.68"/>
<stop offset="1" stop-color="white"/>
</linearGradient>
<linearGradient id="paint17_linear" x1="6807.67" y1="2579.76" x2="8380.25" y2="2579.76" gradientUnits="userSpaceOnUse">
<stop offset="0.02" stop-color="white" stop-opacity="0"/>
<stop offset="0.32" stop-color="white" stop-opacity="0.39"/>
<stop offset="0.68" stop-color="white" stop-opacity="0.68"/>
<stop offset="1" stop-color="white"/>
</linearGradient>
<linearGradient id="paint18_linear" x1="5870.1" y1="2993.84" x2="4689.99" y2="2564.31" gradientUnits="userSpaceOnUse">
<stop offset="0.01"/>
<stop offset="0.13" stop-opacity="0.69"/>
<stop offset="1" stop-opacity="0"/>
</linearGradient>
<linearGradient id="paint19_linear" x1="4546.51" y1="2871.81" x2="4557.74" y2="3359.01" gradientUnits="userSpaceOnUse">
<stop offset="0.01"/>
<stop offset="0.13" stop-opacity="0.69"/>
<stop offset="1" stop-opacity="0"/>
</linearGradient>
<linearGradient id="paint20_linear" x1="3461.9" y1="7029.38" x2="5479.15" y2="7029.38" gradientUnits="userSpaceOnUse">
<stop offset="0.02" stop-color="white" stop-opacity="0"/>
<stop offset="0.32" stop-color="white" stop-opacity="0.39"/>
<stop offset="0.68" stop-color="white" stop-opacity="0.68"/>
<stop offset="1" stop-color="white"/>
</linearGradient>
<linearGradient id="paint21_linear" x1="2155.72" y1="8389.33" x2="3737.8" y2="8389.33" gradientUnits="userSpaceOnUse">
<stop offset="0.02" stop-color="white" stop-opacity="0"/>
<stop offset="0.32" stop-color="white" stop-opacity="0.39"/>
<stop offset="0.68" stop-color="white" stop-opacity="0.68"/>
<stop offset="1" stop-color="white"/>
</linearGradient>
<linearGradient id="paint22_linear" x1="190.117" y1="146.21" x2="202.333" y2="146.21" gradientUnits="userSpaceOnUse">
<stop stop-color="#E5C5D5"/>
<stop offset="0.42" stop-color="#EAD4D1"/>
<stop offset="1" stop-color="#F0E9CB"/>
</linearGradient>
<linearGradient id="paint23_linear" x1="214.923" y1="157.095" x2="228.135" y2="202.395" gradientUnits="userSpaceOnUse">
<stop stop-opacity="0"/>
<stop offset="0.99"/>
</linearGradient>
<linearGradient id="paint24_linear" x1="10320.9" y1="-21957.6" x2="10764.8" y2="-22118.4" gradientUnits="userSpaceOnUse">
<stop stop-color="#E5C5D5"/>
<stop offset="0.42" stop-color="#EAD4D1"/>
<stop offset="1" stop-color="#F0E9CB"/>
</linearGradient>
<linearGradient id="paint25_linear" x1="2534.42" y1="1475.78" x2="2682.61" y2="1475.78" gradientUnits="userSpaceOnUse">
<stop stop-color="#E5C5D5"/>
<stop offset="0.42" stop-color="#EAD4D1"/>
<stop offset="1" stop-color="#F0E9CB"/>
</linearGradient>
<linearGradient id="paint26_linear" x1="14763.2" y1="5114.36" x2="14857.5" y2="7425.21" gradientUnits="userSpaceOnUse">
<stop offset="0.01"/>
<stop offset="0.13" stop-opacity="0.69"/>
<stop offset="1" stop-opacity="0"/>
</linearGradient>
<linearGradient id="paint27_linear" x1="2716.02" y1="4157.36" x2="2248.13" y2="4259.85" gradientUnits="userSpaceOnUse">
<stop offset="0.01"/>
<stop offset="0.13" stop-opacity="0.69"/>
<stop offset="1" stop-opacity="0"/>
</linearGradient>
<linearGradient id="paint28_linear" x1="3057.83" y1="2488.49" x2="2672.5" y2="2637.41" gradientUnits="userSpaceOnUse">
<stop offset="0.01"/>
<stop offset="0.13" stop-opacity="0.69"/>
<stop offset="1" stop-opacity="0"/>
</linearGradient>
<linearGradient id="paint29_linear" x1="2396.93" y1="2746.62" x2="2276.94" y2="3023.58" gradientUnits="userSpaceOnUse">
<stop offset="0.01"/>
<stop offset="0.13" stop-opacity="0.69"/>
<stop offset="1" stop-opacity="0"/>
</linearGradient>
<linearGradient id="paint30_linear" x1="2333.5" y1="3230.82" x2="2213.4" y2="3507.76" gradientUnits="userSpaceOnUse">
<stop offset="0.01"/>
<stop offset="0.13" stop-opacity="0.69"/>
<stop offset="1" stop-opacity="0"/>
</linearGradient>
<linearGradient id="paint31_linear" x1="3423.63" y1="3522.44" x2="3210.21" y2="4014.81" gradientUnits="userSpaceOnUse">
<stop offset="0.01"/>
<stop offset="0.13" stop-opacity="0.69"/>
<stop offset="1" stop-opacity="0"/>
</linearGradient>
<linearGradient id="paint32_linear" x1="3308.5" y1="4151.92" x2="3095.08" y2="4644.29" gradientUnits="userSpaceOnUse">
<stop offset="0.01"/>
<stop offset="0.13" stop-opacity="0.69"/>
<stop offset="1" stop-opacity="0"/>
</linearGradient>
<clipPath id="clip0">
<rect width="379" height="317" fill="white"/>
</clipPath>
</defs>
</svg>
