<svg width="418" height="297" viewBox="0 0 418 297" fill="none" xmlns="http://www.w3.org/2000/svg">
<path d="M195.07 284.864L21.8405 188.32C16.3229 185.364 11.5995 180.606 16.9708 177.483L190.827 83.037C193.44 81.51 197.401 80.515 200.044 81.9632L381.874 181.463C387.392 184.478 388.374 192.92 382.857 195.935L217.903 284.706C214.442 286.605 210.514 287.619 206.509 287.647C202.504 287.674 198.561 286.715 195.07 284.864Z" fill="#FFB7A6"/>
<path style="mix-blend-mode:multiply" opacity="0.63" d="M324.253 189.354C319.028 193.206 313.563 196.762 308.056 200.24L321.641 207.747L342.133 195.531L324.253 189.354Z" fill="url(#paint0_linear)"/>
<path d="M319.164 170.774C319.164 170.774 316.363 193.433 329.102 197.866C341.84 202.299 348.654 190.832 348.852 170.774" fill="#06577A"/>
<path d="M334.003 178.862C342.204 178.862 348.852 175.241 348.852 170.774C348.852 166.307 342.204 162.686 334.003 162.686C325.802 162.686 319.153 166.307 319.153 170.774C319.153 175.241 325.802 178.862 334.003 178.862Z" fill="#F2696A"/>
<path d="M337.807 152.785C337.807 152.785 331.976 144.855 334.525 139.368C334.525 139.368 336.615 135.841 339.594 135.289C339.594 135.289 339.301 142.806 342.269 141.85C345.237 140.895 342.269 133.969 342.269 133.969C342.269 133.969 345.404 130.028 348.8 130.117C352.196 130.206 348.8 137.151 351.172 136.028C353.544 134.905 351.319 129.004 353.994 128.304C356.438 127.774 358.916 127.399 361.413 127.181C361.413 127.181 363.942 134.077 361.413 135.063C358.884 136.048 355.143 136.373 356.962 137.89C358.78 139.407 363.796 137.663 363.796 137.663C363.796 137.663 364.109 141.525 362.396 143.19C360.682 144.855 350.587 141.17 352.364 144.481C354.14 147.791 360.828 146.136 360.828 146.136C360.828 146.136 357.411 150.736 353.409 152.835C349.406 154.933 337.807 152.785 337.807 152.785Z" fill="#8CCC00"/>
<path d="M339.176 172.626C339.176 172.626 334.996 168.686 335.79 165.346C335.79 165.346 336.584 163.139 338.204 162.519C338.204 162.519 338.883 166.814 340.461 165.977C342.039 165.139 339.573 161.514 339.573 161.514C339.573 161.514 340.889 158.943 342.844 158.667C344.798 158.391 343.638 162.657 344.86 161.77C346.083 160.883 344.15 157.77 345.592 157.1C346.92 156.555 348.285 156.094 349.678 155.721C349.678 155.721 351.883 159.356 350.566 160.174C349.249 160.992 347.17 161.543 348.361 162.223C349.552 162.903 352.217 161.405 352.217 161.405C352.217 161.405 352.834 163.563 352.05 164.686C351.266 165.809 345.111 164.686 346.501 166.43C347.891 168.173 351.496 166.518 351.496 166.518C350.642 168.229 349.45 169.77 347.985 171.06C345.989 172.656 339.176 172.626 339.176 172.626Z" fill="#8CCC00"/>
<path d="M323.699 164.164C323.699 164.164 313.469 164.538 309.937 159.573C309.937 159.573 307.909 156.017 309.007 153.347C309.007 153.347 315.569 157.622 316.322 154.746C317.074 151.869 309.278 150.52 309.278 150.52C309.278 150.52 307.387 145.899 309.341 143.249C311.295 140.599 315.611 147.022 315.883 144.52C316.154 142.018 309.675 140.629 310.49 138.126C311.331 135.898 312.33 133.726 313.479 131.624C313.479 131.624 320.972 133.299 320.491 135.841C320.01 138.382 318.317 141.505 320.627 140.904C322.936 140.304 324.096 135.348 324.096 135.348C324.096 135.348 327.722 137.171 328.276 139.437C328.83 141.702 320.115 147.741 324.044 148.106C327.973 148.47 330.074 142.264 330.074 142.264C330.074 142.264 332.352 147.456 332.08 151.771C331.808 156.086 323.699 164.164 323.699 164.164Z" fill="#8CCC00"/>
<path d="M359.198 130.206C358.118 131.073 357.028 131.953 355.927 132.846C356.042 131.752 356.178 130.669 356.355 129.585C356.449 129.014 355.519 128.767 355.425 129.339C355.182 130.79 354.997 132.248 354.872 133.713C352.008 136.087 349.155 138.56 346.512 141.19C346.284 139.343 346.224 137.481 346.334 135.624C346.334 135.043 345.404 135.043 345.372 135.624C345.247 137.772 345.342 139.926 345.655 142.057C343.964 143.775 342.377 145.581 340.9 147.466C339.237 145.3 338.106 142.813 337.587 140.185C337.472 139.614 336.542 139.85 336.657 140.432C337.212 143.225 338.434 145.863 340.231 148.145C340.259 148.175 340.29 148.202 340.325 148.224C336.072 153.899 333.146 160.273 332.906 167.651C332.906 168.242 333.857 168.232 333.867 167.651C334.107 160.548 336.908 154.391 340.983 148.933C344.886 149.91 348.93 150.283 352.959 150.037C353.576 150.037 353.586 149.052 352.959 149.13C349.134 149.367 345.294 149.035 341.579 148.145C343.627 145.537 345.877 143.074 348.309 140.776H348.393C350.65 140.964 352.907 141.151 355.164 141.23C356.576 141.418 358.016 141.258 359.344 140.767C359.898 140.501 359.407 139.712 358.853 139.978C357.296 140.717 355.112 140.323 353.44 140.235C352.008 140.156 350.577 140.038 349.145 139.919C352.593 136.708 356.282 133.713 359.846 130.866C360.358 130.472 359.668 129.782 359.198 130.206Z" fill="#06577A"/>
<path d="M329.259 147.938C329.293 147.822 329.278 147.698 329.215 147.592C329.152 147.487 329.048 147.41 328.924 147.377C328.801 147.344 328.669 147.359 328.557 147.418C328.445 147.477 328.363 147.576 328.329 147.692C327.285 151.053 325.11 154.002 322.132 156.095C321.038 153.232 320.035 150.336 319.122 147.406C321.453 145.214 323.368 142.662 324.786 139.86C325.058 139.338 324.222 138.875 323.95 139.397C322.643 141.972 320.903 144.33 318.798 146.382C317.753 143.032 316.896 139.644 316.144 136.225C316.018 135.654 315.099 135.89 315.214 136.471C316.238 141.148 317.506 145.761 319.018 150.313C317.212 149.973 315.458 149.427 313.793 148.687C313.228 148.441 312.748 149.219 313.301 149.475C315.238 150.343 317.291 150.96 319.404 151.308V151.308C320.449 154.263 321.567 157.219 322.79 160.174C319.913 160.083 317.079 159.492 314.43 158.43C313.866 158.204 313.385 158.992 313.939 159.218C316.87 160.405 320.018 161.044 323.208 161.1C324.762 164.752 326.468 168.344 328.329 171.878C328.611 172.4 329.436 171.937 329.165 171.414C326.674 166.713 324.462 161.885 322.539 156.953V156.953C325.771 154.727 328.133 151.559 329.259 147.938V147.938Z" fill="#06577A"/>
<path d="M346.752 159.711L344.098 163.918C343.771 163.508 343.487 163.069 343.251 162.607C342.979 162.075 342.154 162.538 342.415 163.07C342.717 163.66 343.089 164.215 343.523 164.725V164.725L340.67 169.306C340.346 169.016 340.136 168.63 340.074 168.213C340.001 167.641 339.029 167.632 339.113 168.213C339.195 168.939 339.569 169.609 340.158 170.085L336.553 175.789C336.488 175.893 336.469 176.018 336.501 176.135C336.534 176.252 336.614 176.353 336.725 176.414C336.836 176.476 336.968 176.493 337.093 176.462C337.217 176.432 337.323 176.356 337.389 176.252L342.143 168.735C342.941 168.746 343.736 168.633 344.495 168.4C345.08 168.223 344.829 167.336 344.233 167.523C343.748 167.667 343.247 167.757 342.739 167.789L347.556 160.174C347.595 160.076 347.595 159.968 347.559 159.869C347.522 159.77 347.45 159.686 347.355 159.632C347.261 159.577 347.149 159.555 347.039 159.57C346.929 159.584 346.827 159.634 346.752 159.711Z" fill="#06577A"/>
<path style="mix-blend-mode:multiply" opacity="0.63" d="M152.424 149.278L62.4179 199.471L37.5051 185.63L101.647 150.155" fill="url(#paint1_linear)"/>
<path d="M126.685 163.051V135.939L152.424 122.384V149.268L126.685 163.051Z" fill="#ECA016"/>
<path d="M126.685 135.939L101.605 122.384C101.605 122.384 100.905 149.712 101.605 150.145C102.306 150.579 126.685 163.041 126.685 163.041V135.939Z" fill="#FFB72F"/>
<path d="M101.647 122.394L126.685 107.961L152.424 122.394L126.685 135.939L101.647 122.394Z" fill="#FFC863"/>
<path d="M111.178 116.896L137.25 130.373V144.53L144.753 140.954V126.433L118.681 112.572L111.178 116.896Z" fill="#FDEDCB"/>
<path style="mix-blend-mode:multiply" opacity="0.63" d="M241.217 258.531L197.348 285.908L106.59 235.567L154.9 210.682" fill="url(#paint2_linear)"/>
<path d="M196.366 13.9687C213.535 24.1058 256.704 47.6508 271.428 56.1625C274.762 58.1328 275.274 60.9602 275.326 64.6545V236.907C274.419 237.903 273.163 238.559 271.787 238.758C270.411 238.957 269.005 238.685 267.823 237.991L195.373 199.393C191.768 197.423 188.936 195.334 188.936 191.394L189.563 17.0916C189.542 13.3185 192.97 11.9688 196.366 13.9687Z" fill="#68E1FD"/>
<path d="M189.678 15.8598L213.232 28.6667V33.4644C213.237 33.8646 213.352 34.2567 213.567 34.6022C213.781 34.9477 214.087 35.2346 214.455 35.4347L232.68 45.3649C232.923 45.5045 233.202 45.5806 233.487 45.5855C233.772 45.5903 234.053 45.5237 234.302 45.3924C234.551 45.2611 234.758 45.0699 234.903 44.8383C235.047 44.6068 235.124 44.3431 235.125 44.0744V40.587L269.349 59.5018C269.67 59.6856 269.935 59.9446 270.118 60.2537C270.301 60.5627 270.396 60.9112 270.394 61.2652V233.508C270.394 233.753 270.326 233.993 270.196 234.205C270.067 234.416 269.88 234.592 269.655 234.714C269.431 234.836 269.176 234.9 268.916 234.899C268.657 234.898 268.402 234.833 268.178 234.71L188.915 191.364C188.777 192.704 189.03 194.054 189.645 195.269C190.259 196.484 191.214 197.518 192.405 198.26C196.512 200.732 268.69 239.242 268.69 239.242C268.69 239.242 274.396 241.675 276.068 235.252V61.9844C276.067 60.8598 275.782 59.7516 275.237 58.7513C274.692 57.7509 273.902 56.8871 272.933 56.2311C269.694 53.9259 196.042 13.6137 196.042 13.6137C196.042 13.6137 190.859 11.338 189.678 15.8598Z" fill="#124577"/>
<path d="M176.25 51.3448V67.1071C176.418 68.3517 176.984 69.5186 177.873 70.4529C178.761 71.3872 179.93 72.0447 181.224 72.3383C185.749 73.3234 186.365 67.6884 186.365 67.6884V56.0538L176.25 51.3448Z" fill="#C13D3D"/>
<path d="M186.104 57.6103L186.522 74.21C186.691 75.4546 187.257 76.6215 188.145 77.5558C189.034 78.4901 190.202 79.1476 191.496 79.4412C196.021 80.4263 196.638 74.7913 196.638 74.7913V63.1567L186.104 57.6103Z" fill="#DD842A"/>
<path d="M196.638 63.2552V79.0176C196.806 80.2622 197.372 81.429 198.261 82.3633C199.149 83.2976 200.318 83.9551 201.612 84.2487C206.137 85.2338 206.753 79.5988 206.753 79.5988V67.9642L196.638 63.2552Z" fill="#C13D3D"/>
<path d="M206.753 69.0085V84.7708C206.922 86.0154 207.488 87.1823 208.376 88.1166C209.265 89.0508 210.433 89.7084 211.727 90.002C216.252 90.9871 216.869 85.3521 216.869 85.3521V73.7175L206.753 69.0085Z" fill="#DD842A"/>
<path d="M216.869 73.816V89.5783C217.038 90.8229 217.604 91.9898 218.492 92.9241C219.38 93.8583 220.549 94.5159 221.843 94.8095C226.368 95.7946 226.985 90.1596 226.985 90.1596V78.5545L216.869 73.816Z" fill="#C13D3D"/>
<path d="M226.817 80.2589V96.0212C226.986 97.2658 227.552 98.4326 228.44 99.3669C229.329 100.301 230.497 100.959 231.791 101.252C236.316 102.237 236.933 96.6024 236.933 96.6024V84.9679L226.817 80.2589Z" fill="#DD842A"/>
<path d="M226.817 81.0568L250.852 49.1183L260.111 54.4578L236.943 86.6918" fill="#F29D40"/>
<path d="M216.869 75.4612L240.455 43.5424L250.852 49.1184L226.817 81.0568" fill="#E04F4F"/>
<path d="M206.753 69.8458L231.259 38.2029L240.455 43.5424L216.879 75.54" fill="#F29D40"/>
<path d="M196.638 64.0433L220.422 32.4595L231.259 38.2029L206.743 69.767" fill="#E04F4F"/>
<path d="M186.365 58.093L209.125 26.5191L220.422 32.4595L196.638 64.0433" fill="#F29D40"/>
<path d="M176.25 52.3102L198.864 20.8643L209.125 26.5191L186.365 58.093" fill="#E04F4F"/>
<path d="M166.134 46.7442L189.678 15.8598L198.864 20.8643L176.25 52.3102" fill="#F29D40"/>
<path d="M269.317 59.5018C269.317 59.5018 270.362 59.7087 270.362 61.4721V91.8343L244.102 105.991L247.759 84.3176L269.317 59.5018Z" fill="#AA2B2B"/>
<path d="M236.943 86.6919V100.819C237.112 102.063 237.678 103.23 238.566 104.165C239.455 105.099 240.624 105.756 241.918 106.05C246.442 107.035 247.059 101.4 247.059 101.4L246.86 92.1102L236.943 86.6919Z" fill="#C13D3D"/>
<path d="M246.86 92.1102L269.317 59.5018L260.111 54.4579L236.943 86.6919" fill="#E04F4F"/>
<path d="M166.155 46.7441V63.3045C166.324 64.5491 166.89 65.7159 167.778 66.6502C168.667 67.5845 169.835 68.242 171.129 68.5356C175.654 69.5207 176.271 63.8857 176.271 63.8857V52.2511L166.155 46.7441Z" fill="#DD842A"/>
<path d="M207.809 132.363C207.809 132.363 211.55 125.182 210.944 124.551C210.338 123.921 208.206 126.748 208.206 126.748C208.206 126.748 208.206 119.389 207.537 119.271C206.868 119.152 206.492 123.861 206.492 123.861C206.492 123.861 205.761 118.394 204.622 118.394C203.482 118.394 204.622 123.615 204.622 123.615C204.622 123.615 202.626 120.345 201.957 120.601C201.288 120.857 203.002 124.975 203.002 124.975C203.002 124.975 201.131 123.497 200.912 123.871C200.692 124.246 202.845 129.378 204.245 130.61C205.152 131.443 205.936 132.387 206.576 133.417" fill="#FFE5D0"/>
<path d="M224.456 130.689C224.968 131.043 220.641 129.319 213.055 146.658C213.055 146.658 211.059 138.392 210.421 132.866C209.456 132.22 208.363 131.763 207.207 131.523C206.051 131.282 204.855 131.263 203.691 131.467C203.576 135.506 203.441 151.258 208.112 153.603C213.483 156.293 219.147 156.559 222.324 149.662C222.324 149.722 232.627 134.491 224.456 130.689Z" fill="#BA5738"/>
<path d="M240.935 150.155L241.447 150.786C243.077 144.875 243.381 137.752 240.204 132.619C237.278 131.536 234.153 131.349 233.61 130.797L225.312 130.491C224.905 130.483 224.502 130.569 224.138 130.741C223.774 130.912 223.46 131.165 223.222 131.477C221.132 134.117 215.981 141.505 217.768 148.116C219.983 156.342 219.251 162.597 219.408 168.577C219.565 174.557 211.79 188.28 212.752 197.147C213.713 206.013 241.468 211.5 242.733 206.269C247.226 187.551 247.958 177.749 243.945 169.641C239.932 161.533 240.935 150.155 240.935 150.155Z" fill="#CC7452"/>
<path d="M240.193 132.619C240.193 132.619 245.721 134.797 248.323 145.545C250.926 156.293 252.065 158.135 241.479 164.587C230.893 171.04 232.074 170.272 232.074 170.272C232.074 170.272 226.002 166.893 227.131 164.745C228.259 162.597 240.883 157.012 240.434 153.278C239.984 149.544 234.258 145.554 234.258 145.554" fill="#CC7452"/>
<path d="M239.305 147.574C239.249 147.448 239.146 147.346 239.016 147.286C238.886 147.227 238.737 147.214 238.598 147.25C238.458 147.286 238.337 147.369 238.258 147.483C238.179 147.597 238.146 147.734 238.166 147.869C238.737 149.352 239.157 150.883 239.42 152.441C239.671 155.268 238.375 156.716 236.107 158.214C233.752 159.657 231.253 160.881 228.646 161.868C228.588 161.887 228.534 161.917 228.488 161.955C228.443 161.994 228.405 162.041 228.379 162.093C228.353 162.145 228.338 162.202 228.335 162.26C228.333 162.318 228.342 162.376 228.364 162.43C228.252 162.485 228.165 162.576 228.119 162.686C228.073 162.797 228.071 162.919 228.113 163.031C228.629 165.292 229.731 167.397 231.321 169.159C231.381 169.223 231.458 169.271 231.545 169.299C231.631 169.326 231.723 169.332 231.812 169.316C231.873 169.423 231.97 169.508 232.087 169.557C232.204 169.607 232.335 169.619 232.46 169.592C234.88 169.138 237.172 168.212 239.19 166.873C239.807 166.459 239.19 165.494 238.594 165.888C236.692 167.152 234.532 168.031 232.251 168.469C232.229 168.426 232.201 168.386 232.168 168.351C230.739 166.754 229.752 164.848 229.294 162.804C232.972 161.277 236.86 159.662 239.639 156.824C242.137 154.224 240.204 150.618 239.305 147.574Z" fill="#BA5738"/>
<path d="M184.965 151.455L270.436 198.004L240.967 214.406L154.085 167.976L184.965 151.455Z" fill="#FFA364"/>
<path d="M228.061 163.031C226.289 163.883 224.42 164.544 222.491 165.001C220.547 165.267 218.792 163.602 218.144 164.39C217.496 165.179 221.038 165.592 220.234 166.134C219.429 166.676 217.161 167.119 216.514 168.321C215.866 169.523 215.03 171.73 216.973 172.951C218.917 174.173 221.791 171.73 223.64 170.685C225.49 169.641 229.545 166.745 229.545 166.745C229.545 166.745 229.012 163.937 228.061 163.031Z" fill="#FFE5D0"/>
<path d="M240.925 214.406V260.088L270.394 242.601V198.004L240.925 214.406Z" fill="#FFBB8D"/>
<path d="M154.043 167.986V210.19L240.925 260.088V214.406L154.043 167.986Z" fill="#E58341"/>
<path d="M227.037 127.989C227.005 129.576 226.684 131.146 226.086 132.629C225.218 134.186 228.416 134.757 231.102 134.028C233.787 133.299 232.492 127.428 232.492 127.428" fill="#FFE5D0"/>
<path d="M222.69 119.015C222.69 119.015 219.45 127.378 221.874 128.679C224.299 129.979 230.339 128.679 230.339 128.679" fill="#E84C1C"/>
<path d="M221.948 117.251C221.948 117.251 220.798 129.073 227.308 130.117C233.819 131.161 235.125 118.946 233.829 117.251C232.533 115.557 223.63 114.503 221.948 117.251Z" fill="#FFE5D0"/>
<path d="M230.339 126.088C230.133 126.835 230.086 127.614 230.203 128.379C230.32 129.143 230.597 129.878 231.018 130.541C233.716 131.128 236.535 130.981 239.148 130.117C242.639 122.532 239.086 110.946 230.579 110.079C222.073 109.212 220.756 113.833 220.276 116.571C219.795 119.31 221.874 119.074 222.69 119.024C229.9 118.581 231.865 121.753 230.339 126.088Z" fill="#E84C1C"/>
<path d="M77.3927 104.168C78.0674 103.759 78.8528 103.541 79.6552 103.541C80.4575 103.541 81.2429 103.759 81.9176 104.168C84.4256 105.902 84.436 110.651 81.9176 114.798C80.8882 116.639 79.3218 118.163 77.4032 119.192C76.7285 119.601 75.9431 119.819 75.1408 119.819C74.3384 119.819 73.553 119.601 72.8783 119.192C70.3703 117.458 70.3599 112.71 72.8783 108.562C73.9077 106.722 75.4741 105.197 77.3927 104.168Z" fill="#68E1FD"/>
<path d="M77.3301 78.7023C84.5406 75.2149 91.7615 74.9588 97.2687 78.7713C98.0629 79.323 98.0733 80.8401 97.2687 82.1602C96.9385 82.746 96.4383 83.2312 95.8266 83.5591C95.6113 83.689 95.3611 83.758 95.1055 83.758C94.85 83.758 94.5997 83.689 94.3845 83.5591C89.6715 80.2983 83.4956 80.5248 77.3301 83.4803C71.1646 86.4357 65.0095 92.1988 60.3384 99.9815C60.0082 100.567 59.508 101.052 58.8963 101.38C58.681 101.51 58.4308 101.579 58.1752 101.579C57.9197 101.579 57.6695 101.51 57.4542 101.38C56.6495 100.829 56.6495 99.3116 57.4542 97.9915C62.9091 88.8986 70.1091 82.1897 77.3301 78.7023Z" fill="#68E1FD"/>
<path d="M77.2674 65.5703C87.2053 60.7628 97.1224 60.4968 104.908 65.8462C106.193 66.7426 105.273 69.7868 103.476 70.6438C103.261 70.7749 103.011 70.8446 102.755 70.8446C102.499 70.8446 102.249 70.7749 102.034 70.6438C95.0951 65.8265 86.1812 66.053 77.3301 70.3483C68.4789 74.6435 59.5651 83.0173 52.6054 94.5139C52.2879 95.0954 51.8024 95.5804 51.2051 95.9129C50.9882 96.0436 50.7362 96.1131 50.4788 96.1131C50.2214 96.1131 49.9694 96.0436 49.7525 95.9129C48.9583 95.3612 48.9479 93.844 49.7525 92.5239C57.4019 79.7072 67.3294 70.368 77.2674 65.5703Z" fill="#68E1FD"/>
<path d="M77.33 90.9871C81.8653 88.8001 86.4111 88.6326 89.87 90.9871C91.1554 91.8737 90.2358 94.9277 88.4384 95.7749C88.2227 95.9036 87.9726 95.972 87.7173 95.972C87.462 95.972 87.212 95.9036 86.9963 95.7749C84.3315 93.9327 80.8308 94.0509 77.3405 95.7749C73.26 97.9753 69.9316 101.229 67.7474 105.154C67.4186 105.74 66.9181 106.226 66.3053 106.552C66.0884 106.683 65.8364 106.753 65.579 106.753C65.3216 106.753 65.0696 106.683 64.8527 106.552C64.0585 105.991 64.0481 104.474 64.8527 103.164C68.2908 97.4004 72.8156 93.1741 77.33 90.9871Z" fill="#68E1FD"/>
<path d="M186.292 172.685V161.849L196.575 156.43V167.218L186.292 172.685Z" fill="#ECA016"/>
<path d="M186.292 161.859L176.281 156.44C176.281 156.44 175.999 167.366 176.281 167.533C176.563 167.7 186.292 172.685 186.292 172.685V161.859Z" fill="#FFB72F"/>
<path d="M176.281 156.44L186.292 150.667L196.585 156.44L186.292 161.859L176.281 156.44Z" fill="#FFC863"/>
<path d="M180.095 154.243L190.514 159.632V165.287L193.513 163.858V158.056L183.094 152.51L180.095 154.243Z" fill="#FDEDCB"/>
<path style="mix-blend-mode:multiply" opacity="0.63" d="M47.1191 200.486L82.1371 181.01L57.0571 179.296L31.9771 191.59C35.8122 194.171 43.1272 197.944 47.1191 200.486Z" fill="url(#paint3_linear)"/>
<path d="M61.4774 132.738C53.4727 133.26 53.8907 145.466 53.3473 150.529C53.2115 151.8 55.291 152.224 55.4373 150.943C55.8867 146.727 55.5941 141.013 58.0812 137.299C58.8545 136.146 59.7636 135.023 61.3416 134.925C61.8256 134.91 62.3077 134.989 62.7574 135.159C63.2071 135.328 63.6146 135.584 63.9541 135.91C64.6542 136.511 64.9991 138.865 65.1454 139.575C65.5583 142.185 65.604 144.834 65.2812 147.456C65.1349 148.727 67.2145 149.15 67.3712 147.87C67.7997 143.821 68.6043 132.225 61.4774 132.738Z" fill="#8CCC00"/>
<path d="M73.4426 140.875L75.8566 144.658L80.6636 145.604L77.0583 157.327L66.8278 151.091" fill="#DD842A"/>
<path d="M48.7701 153.741L73.4426 140.875L72.6484 159.977L53.7861 161.681L48.7701 153.741Z" fill="#C13D3D"/>
<path d="M57.6005 156.578L61.4147 192.694L84.4779 179.64L80.6636 145.604L57.6005 156.578Z" fill="#F29D40"/>
<path d="M57.6004 156.578L54.9983 153.741H48.7701L46.1681 185.315L52.8665 188.221L61.4146 192.694L57.6004 156.578Z" fill="#DD842A"/>
<path d="M71.7811 138.727C63.7555 138.796 63.4211 151.002 62.5433 156.027C62.3238 157.288 64.372 157.829 64.6333 156.558C65.3543 152.372 65.417 146.648 68.134 143.082C69.2522 141.624 71.2063 140.392 73.1187 141.348C74.8429 142.205 74.8638 144.126 75.031 145.732C75.2812 148.362 75.1618 151.012 74.6757 153.613C74.4563 154.874 76.5045 155.416 76.7657 154.145C77.33 150.194 78.9289 138.649 71.7811 138.727Z" fill="#8CCC00"/>
<defs>
<linearGradient id="paint0_linear" x1="321.275" y1="205.304" x2="324.169" y2="199.002" gradientUnits="userSpaceOnUse">
<stop stop-color="white" stop-opacity="0"/>
<stop offset="1" stop-color="#F15A24"/>
</linearGradient>
<linearGradient id="paint1_linear" x1="9707.91" y1="8973.75" x2="10618.8" y2="6934.57" gradientUnits="userSpaceOnUse">
<stop stop-color="white" stop-opacity="0"/>
<stop offset="1" stop-color="#F15A24"/>
</linearGradient>
<linearGradient id="paint2_linear" x1="19883.3" y1="20963.2" x2="21987.9" y2="15976.4" gradientUnits="userSpaceOnUse">
<stop stop-color="white" stop-opacity="0"/>
<stop offset="1" stop-color="#F15A24"/>
</linearGradient>
<linearGradient id="paint3_linear" x1="1981.7" y1="4405.32" x2="2287.14" y2="3893.37" gradientUnits="userSpaceOnUse">
<stop stop-color="white" stop-opacity="0"/>
<stop offset="1" stop-color="#F15A24"/>
</linearGradient>
</defs>
</svg>
